<svg width="160" height="48" viewBox="0 0 160 48" fill="none" xmlns="http://www.w3.org/2000/svg" role="img" aria-labelledby="title desc">
  <title id="title">Esraa Amaireh logo</title>
  <desc id="desc">Light purple monogram logo for Esraa Amaireh</desc>
  <rect x="1" y="1" width="46" height="46" rx="18" fill="#FCFAFF" stroke="#E9D5FF" stroke-width="2"/>
  <path d="M15 31.5L23.8 13.5H25.9L34.8 31.5H31.1L29.2 27.4H20.4L18.5 31.5H15ZM21.7 24.6H27.9L24.8 17.9L21.7 24.6Z" fill="#A855F7"/>
  <path d="M54 17.2H76.6V21.1H59.1V23.9H74.9V27.6H59.1V30.8H76.9V34.8H54V17.2Z" fill="#1E1B4B"/>
  <path d="M82.6 34.8V17.2H87.4L99.7 28.3V17.2H104.5V34.8H99.9L87.4 23.4V34.8H82.6Z" fill="#1E1B4B"/>
  <path d="M111.1 34.8L121.1 17.2H126.2L136.2 34.8H130.8L129.1 31.6H118.1L116.4 34.8H111.1ZM120.1 27.9H127.1L123.6 21.4L120.1 27.9Z" fill="#A855F7"/>
  <circle cx="148" cy="24" r="5" fill="#C084FC"/>
</svg>
