<svg width="720" height="240" viewBox="0 0 720 240" fill="none" xmlns="http://www.w3.org/2000/svg">
  <defs>
    <linearGradient id="purpleGradient" x1="90" y1="35" x2="250" y2="205" gradientUnits="userSpaceOnUse">
      <stop offset="0%" stop-color="#E9D5FF"/>
      <stop offset="45%" stop-color="#C084FC"/>
      <stop offset="100%" stop-color="#A855F7"/>
    </linearGradient>
    <linearGradient id="textGradient" x1="295" y1="70" x2="560" y2="165" gradientUnits="userSpaceOnUse">
      <stop offset="0%" stop-color="#7E22CE"/>
      <stop offset="100%" stop-color="#C084FC"/>
    </linearGradient>
    <filter id="softGlow" x="-30%" y="-30%" width="160%" height="160%">
      <feGaussianBlur stdDeviation="6" result="blur"/>
      <feMerge>
        <feMergeNode in="blur"/>
        <feMergeNode in="SourceGraphic"/>
      </feMerge>
    </filter>
  </defs>

  <rect width="720" height="240" rx="34" fill="#FAF7FF"/>

  <circle cx="615" cy="45" r="54" fill="#E9D5FF" opacity="0.45"/>
  <circle cx="660" cy="195" r="78" fill="#F3E8FF" opacity="0.65"/>

  <g filter="url(#softGlow)">
    <path d="M166 38L242 82V158L166 202L90 158V82L166 38Z"
          stroke="url(#purpleGradient)" stroke-width="10" stroke-linejoin="round"/>
    <path d="M190 84H142C128 84 118 94 118 108V132C118 146 128 156 142 156H190"
          stroke="url(#purpleGradient)" stroke-width="12" stroke-linecap="round"/>
    <path d="M139 120H204"
          stroke="url(#purpleGradient)" stroke-width="12" stroke-linecap="round"/>
    <circle cx="166" cy="38" r="17" fill="#C084FC"/>
    <circle cx="90" cy="158" r="17" fill="#D8B4FE"/>
    <circle cx="242" cy="158" r="17" fill="#A855F7"/>
  </g>

  <text x="300" y="130"
        font-family="Inter, Poppins, Arial, sans-serif"
        font-size="76"
        font-weight="800"
        letter-spacing="-3"
        fill="url(#textGradient)">Esraa</text>

  <text x="305" y="165"
        font-family="Inter, Poppins, Arial, sans-serif"
        font-size="22"
        font-weight="500"
        letter-spacing="6"
        fill="#7E22CE"
        opacity="0.82">FULL STACK DEV</text>
</svg>
